C:\Users\Nicos\Documents\OpenSimProjects\SprintingProject\Study1\PredictiveResults\IC_pred_Sprinting_optimum_26-October-2023__20-13-02_p02_maxVel_01___IKTD_Plus_6_GRF.mot
version=1
nRows=4
nColumns=127
inDegrees=yes
endheader
time	ground_force_vx	ground_force_vy	ground_force_vz	ground_force_px	ground_force_py	ground_force_pz	ground_torque_x	ground_torque_y	ground_torque_z	1_ground_force_vx	1_ground_force_vy	1_ground_force_vz	1_ground_force_px	1_ground_force_py	1_ground_force_pz	1_ground_torque_x	1_ground_torque_y	1_ground_torque_z	2_ground_force_vx	2_ground_force_vy	2_ground_force_vz	2_ground_force_px	2_ground_force_py	2_ground_force_pz	2_ground_torque_x	2_ground_torque_y	2_ground_torque_z	3_ground_force_vx	3_ground_force_vy	3_ground_force_vz	3_ground_force_px	3_ground_force_py	3_ground_force_pz	3_ground_torque_x	3_ground_torque_y	3_ground_torque_z	4_ground_force_vx	4_ground_force_vy	4_ground_force_vz	4_ground_force_px	4_ground_force_py	4_ground_force_pz	4_ground_torque_x	4_ground_torque_y	4_ground_torque_z	5_ground_force_vx	5_ground_force_vy	5_ground_force_vz	5_ground_force_px	5_ground_force_py	5_ground_force_pz	5_ground_torque_x	5_ground_torque_y	5_ground_torque_z	6_ground_force_vx	6_ground_force_vy	6_ground_force_vz	6_ground_force_px	6_ground_force_py	6_ground_force_pz	6_ground_torque_x	6_ground_torque_y	6_ground_torque_z	7_ground_force_vx	7_ground_force_vy	7_ground_force_vz	7_ground_force_px	7_ground_force_py	7_ground_force_pz	7_ground_torque_x	7_ground_torque_y	7_ground_torque_z	8_ground_force_vx	8_ground_force_vy	8_ground_force_vz	8_ground_force_px	8_ground_force_py	8_ground_force_pz	8_ground_torque_x	8_ground_torque_y	8_ground_torque_z	9_ground_force_vx	9_ground_force_vy	9_ground_force_vz	9_ground_force_px	9_ground_force_py	9_ground_force_pz	9_ground_torque_x	9_ground_torque_y	9_ground_torque_z	10_ground_force_vx	10_ground_force_vy	10_ground_force_vz	10_ground_force_px	10_ground_force_py	10_ground_force_pz	10_ground_torque_x	10_ground_torque_y	10_ground_torque_z	11_ground_force_vx	11_ground_force_vy	11_ground_force_vz	11_ground_force_px	11_ground_force_py	11_ground_force_pz	11_ground_torque_x	11_ground_torque_y	11_ground_torque_z	12_ground_force_vx	12_ground_force_vy	12_ground_force_vz	12_ground_force_px	12_ground_force_py	12_ground_force_pz	12_ground_torque_x	12_ground_torque_y	12_ground_torque_z	13_ground_force_vx	13_ground_force_vy	13_ground_force_vz	13_ground_force_px	13_ground_force_py	13_ground_force_pz	13_ground_torque_x	13_ground_torque_y	13_ground_torque_z
0.056000	-81.290342	39.172269	15.646468	0.359585	-0.001835	0.407553	0.000000	0.000000	0.000000	-1.186862	0.586031	0.257617	0.317180	0.004477	0.430130	0.000000	0.000000	0.000000	-0.033059	0.017051	0.009379	0.289712	0.008142	0.424771	0.000000	0.000000	0.000000	-0.442304	0.222990	0.124375	0.291755	0.005512	0.402756	0.000000	0.000000	0.000000	-0.000000	0.000000	0.000000	0.207221	0.019333	0.458223	0.000000	0.000000	0.000000	-0.003219	0.001659	0.000996	0.260295	0.010386	0.420968	0.000000	0.000000	0.000000	-0.000000	0.000000	0.000000	0.142625	0.019365	0.405759	0.000000	0.000000	0.000000	-0.000000	0.000000	0.000000	-0.576332	0.266444	0.199414	0.000000	0.000000	0.000000	-0.000000	0.000000	0.000000	-0.554231	0.287055	0.182696	0.000000	0.000000	0.000000	-0.000000	0.000000	0.000000	-0.539523	0.298057	0.190156	0.000000	0.000000	0.000000	-0.000000	0.000000	0.000000	-0.544168	0.295833	0.211953	0.000000	0.000000	0.000000	-0.000000	0.000000	0.000000	-0.500102	0.337985	0.167937	0.000000	0.000000	0.000000	-0.000000	0.000000	0.000000	-0.528189	0.311379	0.198009	0.000000	0.000000	0.000000	-0.000000	0.000000	0.000000	-0.482852	0.364665	0.229421	0.000000	0.000000	0.000000
0.056648	-110.768031	53.777843	19.130412	0.363292	-0.002437	0.406972	0.000000	0.000000	0.000000	-2.397786	1.193961	0.479873	0.320739	0.003650	0.429517	0.000000	0.000000	0.000000	-0.081531	0.042257	0.021525	0.293156	0.007238	0.424060	0.000000	0.000000	0.000000	-0.913834	0.462711	0.238589	0.295306	0.004721	0.402003	0.000000	0.000000	0.000000	-0.000001	0.000000	0.000000	0.210448	0.018106	0.457403	0.000000	0.000000	0.000000	-0.008586	0.004448	0.002495	0.263736	0.009444	0.420185	0.000000	0.000000	0.000000	-0.000001	0.000000	0.000000	0.146057	0.018268	0.404688	0.000000	0.000000	0.000000	-0.000000	0.000000	0.000000	-0.565071	0.266367	0.198586	0.000000	0.000000	0.000000	-0.000000	0.000000	0.000000	-0.543062	0.287019	0.181947	0.000000	0.000000	0.000000	-0.000000	0.000000	0.000000	-0.528463	0.298056	0.189477	0.000000	0.000000	0.000000	-0.000000	0.000000	0.000000	-0.533165	0.295822	0.211258	0.000000	0.000000	0.000000	-0.000000	0.000000	0.000000	-0.489232	0.338051	0.167402	0.000000	0.000000	0.000000	-0.000000	0.000000	0.000000	-0.517242	0.311395	0.197372	0.000000	0.000000	0.000000	-0.000000	0.000000	0.000000	-0.472359	0.364753	0.228952	0.000000	0.000000	0.000000
0.058694	-208.267123	104.889112	18.754704	0.374700	-0.004173	0.405731	0.000000	0.000000	0.000000	-12.187426	6.313134	1.548220	0.331662	0.001218	0.428062	0.000000	0.000000	0.000000	-1.019222	0.546507	0.194434	0.303758	0.004548	0.422254	0.000000	0.000000	0.000000	-6.146902	3.211709	1.147303	0.306263	0.002340	0.400102	0.000000	0.000000	0.000000	-0.000041	0.000023	0.000012	0.220323	0.014380	0.455068	0.000000	0.000000	0.000000	-0.148847	0.079741	0.033157	0.274330	0.006596	0.418111	0.000000	0.000000	0.000000	-0.000028	0.000015	0.000010	0.156614	0.014788	0.401537	0.000000	0.000000	0.000000	-0.000000	0.000000	0.000000	-0.529494	0.266105	0.195983	0.000000	0.000000	0.000000	-0.000000	0.000000	0.000000	-0.507738	0.286874	0.179595	0.000000	0.000000	0.000000	-0.000000	0.000000	0.000000	-0.493444	0.297976	0.187273	0.000000	0.000000	0.000000	-0.000000	0.000000	0.000000	-0.498329	0.295712	0.209002	0.000000	0.000000	0.000000	-0.000000	0.000000	0.000000	-0.454826	0.338181	0.165645	0.000000	0.000000	0.000000	-0.000000	0.000000	0.000000	-0.482589	0.311372	0.195297	0.000000	0.000000	0.000000	-0.000000	0.000000	0.000000	-0.439172	0.364956	0.227391	0.000000	0.000000	0.000000
0.060177	-274.280639	143.276222	6.332762	0.382594	-0.005294	0.405408	0.000000	0.000000	0.000000	-27.900058	15.007872	1.816016	0.339195	-0.000392	0.427491	0.000000	0.000000	0.000000	-4.441523	2.484668	0.616772	0.311059	0.002717	0.421364	0.000000	0.000000	0.000000	-14.957134	8.135939	2.006936	0.313833	0.000694	0.399174	0.000000	0.000000	0.000000	-0.000634	0.000374	0.000161	0.227079	0.011815	0.453632	0.000000	0.000000	0.000000	-0.917854	0.512671	0.161152	0.281626	0.004627	0.416988	0.000000	0.000000	0.000000	-0.000415	0.000231	0.000133	0.163897	0.012264	0.399481	0.000000	0.000000	0.000000	-0.000000	0.000000	0.000000	-0.503719	0.265897	0.194102	0.000000	0.000000	0.000000	-0.000000	0.000000	0.000000	-0.482106	0.286739	0.177899	0.000000	0.000000	0.000000	-0.000000	0.000000	0.000000	-0.467995	0.297847	0.185619	0.000000	0.000000	0.000000	-0.000000	0.000000	0.000000	-0.473018	0.295562	0.207307	0.000000	0.000000	0.000000	-0.000000	0.000000	0.000000	-0.429836	0.338204	0.164311	0.000000	0.000000	0.000000	-0.000000	0.000000	0.000000	-0.457415	0.311284	0.193733	0.000000	0.000000	0.000000	-0.000000	0.000000	0.000000	-0.415094	0.365033	0.226187	0.000000	0.000000	0.000000
